<svg xmlns="http://www.w3.org/2000/svg" width="237.347" height="55.819" viewBox="0 0 237.347 55.819">
  <g id="Group_2001" data-name="Group 2001" transform="translate(0 0)">
    <rect id="Rectangle_2622" data-name="Rectangle 2622" width="2.748" height="16.103" transform="translate(163.069 33.905)"/>
    <g id="Group_1269" data-name="Group 1269" transform="translate(0 0)">
      <g id="Group_2007" data-name="Group 2007">
        <path id="Path_2120" data-name="Path 2120" d="M239.712,41.142A1.856,1.856,0,1,0,237.856,43a1.856,1.856,0,0,0,1.856-1.856" transform="translate(-73.43 -12.224)"/>
        <path id="Path_2121" data-name="Path 2121" d="M0,33.362H0a7.478,7.478,0,0,0,7.478,7.478h.994V25.884H7.478A7.478,7.478,0,0,0,0,33.362" transform="translate(0 -8.054)"/>
        <path id="Path_2122" data-name="Path 2122" d="M67.81,33.362h0a7.478,7.478,0,0,0-7.478-7.478h-.994V40.839h.994a7.478,7.478,0,0,0,7.478-7.478" transform="translate(-18.463 -8.054)"/>
        <path id="Path_2123" data-name="Path 2123" d="M32.442,68.739h0a7.478,7.478,0,0,0,7.478-7.478v-.994H24.964v.994a7.478,7.478,0,0,0,7.478,7.478" transform="translate(-7.767 -18.752)"/>
        <path id="Path_2124" data-name="Path 2124" d="M32.442.912h0A7.478,7.478,0,0,0,24.964,8.39v.994H39.919V8.39A7.478,7.478,0,0,0,32.442.912" transform="translate(-7.767 -0.284)"/>
        <rect id="Rectangle_2623" data-name="Rectangle 2623" width="7.534" height="7.534" transform="translate(20.907 21.855)"/>
        <path id="Path_2125" data-name="Path 2125" d="M52.964,16.332a4.116,4.116,0,1,0,0-5.821,4.116,4.116,0,0,0,0,5.821" transform="translate(-16.104 -2.896)"/>
        <path id="Path_2126" data-name="Path 2126" d="M47.688,19.243h0a7.477,7.477,0,0,0-10.575,0l-.7.7L46.985,30.52l.7-.7a7.477,7.477,0,0,0,0-10.575" transform="translate(-11.329 -5.306)"/>
        <path id="Path_2127" data-name="Path 2127" d="M14.939,16.324a4.116,4.116,0,1,0-5.821,0,4.116,4.116,0,0,0,5.821,0" transform="translate(-2.462 -2.893)"/>
        <path id="Path_2128" data-name="Path 2128" d="M17.861,19.243h0a7.477,7.477,0,0,0,0,10.575l.7.7L29.138,19.946l-.7-.7a7.477,7.477,0,0,0-10.575,0" transform="translate(-4.876 -5.306)"/>
        <path id="Path_2129" data-name="Path 2129" d="M14.953,54.342a4.116,4.116,0,1,0,0,5.821,4.116,4.116,0,0,0,0-5.821" transform="translate(-2.467 -16.533)"/>
        <path id="Path_2130" data-name="Path 2130" d="M17.864,49.066h0a7.477,7.477,0,0,0,10.575,0l.7-.7L18.567,37.789l-.7.7a7.477,7.477,0,0,0,0,10.575" transform="translate(-4.877 -11.758)"/>
        <path id="Path_2131" data-name="Path 2131" d="M52.981,54.347a4.116,4.116,0,1,0,5.821,0,4.116,4.116,0,0,0-5.821,0" transform="translate(-16.109 -16.535)"/>
        <path id="Path_2132" data-name="Path 2132" d="M47.693,49.063h0a7.477,7.477,0,0,0,0-10.575l-.7-.7L36.416,48.36l.7.7a7.477,7.477,0,0,0,10.575,0" transform="translate(-11.331 -11.757)"/>
        <path id="Path_2133" data-name="Path 2133" d="M89.415.883h8.3c3.991,0,6.769,2.49,6.769,6.163a6.029,6.029,0,0,1-4.438,5.844l6.514,10.345h-3.417L97.014,13.208H92.353V23.234H89.415Zm7.855,9.8c2.554,0,4.279-1.469,4.279-3.64s-1.724-3.64-4.279-3.64H92.353v7.28Z" transform="translate(-27.821 -0.275)"/>
        <path id="Path_2134" data-name="Path 2134" d="M122.427,17.9c0-4.79,3.353-8.3,7.951-8.3,4.023,0,6.705,2.3,7.216,5.62h-2.746a4.264,4.264,0,0,0-4.47-3.225c-2.938,0-5.173,2.426-5.173,5.907,0,3.448,2.235,5.907,5.173,5.907,2.491,0,4.278-1.4,4.6-3.448h2.745c-.446,3.257-3.321,5.844-7.344,5.844-4.6,0-7.951-3.544-7.951-8.3" transform="translate(-38.092 -2.986)"/>
        <path id="Path_2135" data-name="Path 2135" d="M147.18.512h2.714V9.8A6.562,6.562,0,0,1,155.61,6.77c3.385,0,5.971,2.107,5.971,5.811V23.119h-2.746V13.188c0-2.587-1.469-4.023-3.768-4.023-3.161,0-5.173,2.746-5.173,7.057v6.9H147.18Z" transform="translate(-45.794 -0.159)"/>
        <path id="Path_2136" data-name="Path 2136" d="M195.262,15.249v10.7h-2.715V15.856c0-2.363-1.277-3.864-3.448-3.864-2.874,0-4.694,2.746-4.694,6.1v7.854h-2.714V15.856c0-2.363-1.245-3.864-3.417-3.864-2.906,0-4.693,2.746-4.693,6.1v7.854h-2.714V9.854h2.714v2.777A5.943,5.943,0,0,1,178.786,9.6a5.074,5.074,0,0,1,5.141,3.448,6.542,6.542,0,0,1,5.62-3.448,5.38,5.38,0,0,1,5.715,5.651" transform="translate(-53.164 -2.986)"/>
        <path id="Path_2137" data-name="Path 2137" d="M208.042,17.9a8.144,8.144,0,1,1,16.285,0,8.144,8.144,0,1,1-16.285,0m8.142,5.907c3.129,0,5.364-2.427,5.364-5.907,0-3.512-2.235-5.939-5.364-5.939s-5.364,2.427-5.364,5.939c0,3.48,2.235,5.907,5.364,5.907" transform="translate(-64.731 -2.986)"/>
        <path id="Path_2138" data-name="Path 2138" d="M233.722,9.853h2.714v2.778A6.562,6.562,0,0,1,242.152,9.6c3.385,0,5.971,2.107,5.971,5.811V25.946h-2.746V16.015c0-2.587-1.469-4.023-3.768-4.023-3.161,0-5.173,2.746-5.173,7.057v6.9h-2.714Z" transform="translate(-72.721 -2.986)"/>
        <path id="Path_2139" data-name="Path 2139" d="M256.806,15.073c0-4.981,3.193-8.3,8.014-8.3a6.274,6.274,0,0,1,5.556,2.873V.513h2.746V23.119h-2.746v-2.65a6.336,6.336,0,0,1-5.556,2.906c-4.821,0-8.014-3.321-8.014-8.3m8.174,5.939c3.161,0,5.4-2.459,5.4-5.939,0-3.512-2.235-5.939-5.4-5.939-3.1,0-5.4,2.426-5.4,5.939s2.3,5.939,5.4,5.939" transform="translate(-79.903 -0.16)"/>
        <path id="Path_2140" data-name="Path 2140" d="M310.4,12.7H298.587V23.235H295.65V.882h2.937v9.292H310.4V.882h2.937V23.235H310.4Z" transform="translate(-91.989 -0.275)"/>
        <rect id="Rectangle_2624" data-name="Rectangle 2624" width="2.746" height="22.607" transform="translate(229.457 0.353)"/>
        <rect id="Rectangle_2625" data-name="Rectangle 2625" width="2.746" height="22.607" transform="translate(234.566 0.353)"/>
        <path id="Path_2141" data-name="Path 2141" d="M89.415,40.147H98.1c4.247,0,7.057,2.555,7.057,6.45s-2.81,6.45-7.057,6.45h-5.78V62.5H89.415Zm8.4,10.378c2.682,0,4.438-1.564,4.438-3.927s-1.757-3.927-4.438-3.927H92.321v7.854Z" transform="translate(-27.821 -12.491)"/>
        <path id="Path_2142" data-name="Path 2142" d="M114.27,59.483V49.233h2.714v9.931c0,2.586,1.469,4.023,3.736,4.023,3.193,0,5.173-2.746,5.173-7.057v-6.9h2.746V65.326h-2.746V62.42a6.283,6.283,0,0,1-5.683,3.16c-3.385,0-5.939-2.107-5.939-6.1" transform="translate(-35.554 -15.319)"/>
        <path id="Path_2143" data-name="Path 2143" d="M140.934,59.733v2.65h-2.746V39.777h2.746v9.131a6.236,6.236,0,0,1,5.556-2.873c4.821,0,8.014,3.32,8.014,8.3s-3.193,8.3-8.014,8.3a6.3,6.3,0,0,1-5.556-2.906m5.4.543c3.1,0,5.4-2.427,5.4-5.939s-2.3-5.939-5.4-5.939c-3.161,0-5.4,2.427-5.4,5.939,0,3.481,2.235,5.939,5.4,5.939" transform="translate(-42.996 -12.376)"/>
        <rect id="Rectangle_2626" data-name="Rectangle 2626" width="2.746" height="22.607" transform="translate(113.265 27.401)"/>
        <path id="Path_2144" data-name="Path 2144" d="M178.774,57.164c0-4.79,3.353-8.3,7.951-8.3,4.023,0,6.705,2.3,7.216,5.62h-2.746a4.264,4.264,0,0,0-4.47-3.225c-2.938,0-5.173,2.427-5.173,5.907,0,3.448,2.235,5.907,5.173,5.907,2.49,0,4.278-1.4,4.6-3.448h2.746c-.447,3.257-3.321,5.844-7.344,5.844-4.6,0-7.951-3.544-7.951-8.3" transform="translate(-55.624 -15.203)"/>
        <path id="Path_2145" data-name="Path 2145" d="M214.326,40.148h2.938V59.976h11.271V62.5H214.326Z" transform="translate(-66.686 -12.492)"/>
        <path id="Path_2146" data-name="Path 2146" d="M247.28,59.733v2.65h-2.746V39.777h2.746v9.131a6.236,6.236,0,0,1,5.556-2.873c4.821,0,8.014,3.32,8.014,8.3s-3.193,8.3-8.014,8.3a6.3,6.3,0,0,1-5.556-2.906m5.4.543c3.1,0,5.4-2.427,5.4-5.939s-2.3-5.939-5.4-5.939c-3.161,0-5.4,2.427-5.4,5.939,0,3.481,2.235,5.939,5.4,5.939" transform="translate(-76.085 -12.376)"/>
        <path id="Path_2147" data-name="Path 2147" d="M270.863,49.118h2.714V51.96a5.656,5.656,0,0,1,5.045-3.1,4.211,4.211,0,0,1,1.82.351v2.618a5.515,5.515,0,0,0-2.14-.415c-2.682,0-4.726,2.618-4.726,7.345v6.45h-2.714Z" transform="translate(-84.277 -15.203)"/>
        <path id="Path_2148" data-name="Path 2148" d="M284.991,60.868c0-3.225,2.268-4.854,7.376-5.365l3.448-.351v-.575c0-2.14-1.564-3.385-3.9-3.385a3.683,3.683,0,0,0-4.024,3.385h-2.746a6.527,6.527,0,0,1,6.769-5.716c3.864,0,6.642,2.267,6.642,6V65.211h-2.746V62.528a5.754,5.754,0,0,1-5.141,2.938c-3.48,0-5.684-1.788-5.684-4.6m5.939,2.267a4.879,4.879,0,0,0,4.885-5.109V57.26l-3.289.383c-3.353.384-4.758,1.181-4.758,3.129,0,1.469,1.213,2.363,3.161,2.363" transform="translate(-88.673 -15.203)"/>
        <path id="Path_2149" data-name="Path 2149" d="M307.983,49.118H310.7V51.96a5.656,5.656,0,0,1,5.045-3.1,4.211,4.211,0,0,1,1.82.351v2.618a5.515,5.515,0,0,0-2.14-.415c-2.682,0-4.726,2.618-4.726,7.345v6.45h-2.714Z" transform="translate(-95.826 -15.203)"/>
        <path id="Path_2150" data-name="Path 2150" d="M328.606,65.326l-6.258-16.093h2.937l4.758,12.517,4.726-12.517h2.874l-8.557,21.9h-2.842Z" transform="translate(-100.296 -15.318)"/>
        <rect id="Rectangle_2627" data-name="Rectangle 2627" width="2.748" height="16.103" transform="translate(80.001 6.842)"/>
        <path id="Path_2151" data-name="Path 2151" d="M119.125,1.856a1.856,1.856,0,1,0-1.856,1.856,1.856,1.856,0,0,0,1.856-1.856" transform="translate(-35.91 0)"/>
        <rect id="Rectangle_2628" data-name="Rectangle 2628" width="2.748" height="16.103" transform="translate(223.728 6.857)"/>
        <path id="Path_2152" data-name="Path 2152" d="M327.771,1.877a1.856,1.856,0,1,0-1.856,1.856,1.856,1.856,0,0,0,1.856-1.856" transform="translate(-100.828 -0.007)"/>
        <rect id="Rectangle_2629" data-name="Rectangle 2629" width="2.748" height="16.103" transform="translate(118.388 33.905)"/>
        <path id="Path_2153" data-name="Path 2153" d="M174.851,41.142A1.856,1.856,0,1,0,172.995,43a1.856,1.856,0,0,0,1.856-1.856" transform="translate(-53.249 -12.224)"/>
        <g id="Component_284_1" data-name="Component 284 – 1">
          <rect id="Rectangle_2630" data-name="Rectangle 2630" width="237.347" height="55.819" fill="none"/>
        </g>
      </g>
    </g>
  </g>
</svg>
