<svg width="69" height="30" viewBox="0 0 69 30" fill="none" xmlns="http://www.w3.org/2000/svg"><path d="M0.592638 0.724609H4.16278C4.48962 0.724609 4.75899 0.990375 4.75899 1.3208V24.5186H16.0621C16.3889 24.5186 16.6583 24.7844 16.6583 25.1148V28.6848C16.6583 29.0117 16.3925 29.281 16.0621 29.281H0.596233C0.269389 29.281 0 29.0153 0 28.6848V1.32439C0 0.997561 0.265797 0.728193 0.596233 0.728193L0.592638 0.724609Z" fill="#3C64FA"/><path d="M64.2408 10.7238V11.5211C62.7934 10.6843 61.152 10.2425 59.4818 10.2461C54.2272 10.2461 49.9639 14.5057 49.9639 19.7637C49.9639 25.0218 54.2236 29.2813 59.4818 29.2813C61.152 29.2813 62.7934 28.8432 64.2408 28.0063V28.8001C64.2408 29.0659 64.4563 29.2813 64.7221 29.2813H68.5185C68.7843 29.2813 68.9998 29.0659 68.9998 28.8001V10.7274C68.9998 10.4616 68.7843 10.2461 68.5185 10.2461H64.7221C64.4563 10.2461 64.2408 10.4616 64.2408 10.7274V10.7238ZM59.4818 24.519C56.8527 24.4974 54.7408 22.3461 54.766 19.7206C54.7875 17.1239 56.8886 15.0265 59.4818 15.0049C62.111 14.9834 64.2588 17.0952 64.2803 19.7206C64.3019 22.3497 62.19 24.4974 59.5645 24.519C59.5357 24.519 59.5106 24.519 59.4818 24.519Z" fill="#3C64FA"/><path d="M27.3617 10.2419C25.6916 10.2419 24.0502 10.6801 22.6027 11.5169V1.20197C22.6027 0.936195 22.3873 0.720703 22.1215 0.720703H18.325C18.0593 0.720703 17.8438 0.936195 17.8438 1.20197V28.7923C17.8438 29.0581 18.0593 29.2736 18.325 29.2736H22.1215C22.3873 29.2736 22.6027 29.0581 22.6027 28.7923V27.9985C24.0502 28.8354 25.6916 29.2771 27.3617 29.2736C32.6164 29.2736 36.8797 25.014 36.8797 19.7559C36.8797 14.4979 32.6164 10.2383 27.3617 10.2383V10.2419ZM27.3617 24.5183C24.7326 24.4968 22.6207 22.3454 22.6459 19.72C22.6674 17.1233 24.7685 15.0259 27.3617 15.0043C29.9908 15.0259 32.1028 17.1772 32.0776 19.8026C32.0561 22.3993 29.9549 24.4968 27.3617 24.5183Z" fill="#3C64FA"/><path d="M42.8274 12.6198V10.7235C42.8274 10.4577 42.6119 10.2422 42.3461 10.2422H38.5497C38.2839 10.2422 38.0684 10.4577 38.0684 10.7235V22.1374V28.7926C38.0684 29.0583 38.2839 29.2738 38.5497 29.2738H42.3461C42.6119 29.2738 42.8274 29.0583 42.8274 28.7926V22.1374C42.8274 18.3483 45.7797 15.2488 49.5079 15.0154C49.7629 15.001 49.9641 14.7927 49.9641 14.5341V10.7342C49.9641 10.4685 49.7486 10.253 49.4828 10.253C49.4756 10.253 49.472 10.253 49.4648 10.253C47.062 10.3499 44.7453 11.176 42.8238 12.6198H42.8274Z" fill="#3C64FA"/><path d="M15.1643 22.0948L11.4684 8.30681L10.5454 4.85534C10.373 4.22322 9.72289 3.8461 9.08716 4.0149L5.64272 4.94153C5.00699 5.11033 4.63344 5.76399 4.80225 6.3961L6.03422 10.9933L9.42118 23.632C9.56126 24.1492 10.0282 24.5119 10.5669 24.5155C10.6711 24.5155 10.7752 24.5011 10.8758 24.476L14.3238 23.553C14.9596 23.3842 15.3367 22.7305 15.1679 22.0948H15.1643ZM9.39604 5.1678L10.3191 8.61569L8.59508 9.07899L6.87107 9.54231L5.948 6.09442L9.39963 5.17138L9.39604 5.1678ZM10.5669 23.3303L7.17995 10.688L8.73875 10.2714L10.628 9.76498L14.0149 22.4037L10.5669 23.3303Z" fill="#FF5722"/></svg>